<svg width="404" height="60" viewBox="0 0 404 60" fill="none" xmlns="http://www.w3.org/2000/svg">
<path d="M142.521 45.4225C142.521 38.9695 141.934 32.5165 140.677 26.1473C139.839 21.7057 138.666 17.4316 136.235 13.5766C132.548 7.37506 126.514 5.61514 119.642 7.29124C114.362 8.63212 110.759 12.3195 107.909 16.7612C103.803 23.1304 101.54 30.2538 100.451 37.7124C99.9479 41.3998 99.6127 45.0872 98.9423 48.7747C98.6071 50.4508 98.4395 52.2107 98.6909 53.9706C98.9423 55.7305 98.8585 56.0657 100.618 56.0657C101.373 56.0657 102.127 56.3171 102.881 56.4847C104.39 56.7361 104.725 56.4009 104.892 54.8924C104.976 53.7191 105.144 52.4621 105.228 51.2888C105.311 49.6127 105.479 49.6127 107.155 49.6127C112.183 49.6127 117.212 49.2775 122.24 48.8585C122.659 48.8585 123.078 48.8585 123.581 48.7747C124.335 48.6908 124.587 49.0261 124.587 49.7803C124.587 50.8698 124.587 52.043 124.587 53.1325C124.587 54.0543 124.587 55.06 124.838 55.9819C125.257 57.658 125.676 57.9932 127.52 57.8256C131.375 57.4066 135.23 57.0713 139.169 57.0713C139.671 57.0713 140.258 57.0713 140.845 56.9875C141.599 56.9037 142.018 56.4847 142.269 55.7305C142.437 55.2276 142.521 54.641 142.521 54.0544C142.521 51.205 142.521 48.2718 142.521 45.4225ZM106.569 42.6569C107.49 36.5392 108.831 30.589 111.01 24.8903C111.932 22.7952 113.021 20.7 114.446 18.9401C115.955 17.0964 117.463 17.0964 119.055 18.8563C120.061 20.0296 120.732 21.4543 121.234 22.9628C122.24 25.8121 122.827 28.7453 123.329 31.6785C123.665 33.8574 123.832 36.0363 124.084 38.2153C124.251 39.1371 124 39.5561 122.994 39.8076C117.798 40.7294 112.519 41.7351 107.323 42.7407C107.155 42.7407 106.988 42.7407 106.569 42.6569Z" fill="#00BC7D"/>
<path d="M159.198 34.7791C158.863 31.2593 158.611 27.6557 158.276 24.1359C158.025 21.538 158.109 18.94 158.025 16.4258C158.025 16.0068 158.025 15.6716 158.025 15.2526C158.025 14.5821 157.69 14.2469 157.103 14.0793C154.673 13.4927 152.242 12.7384 149.812 12.1518C148.722 11.8166 148.303 12.068 147.968 13.0736C147.717 13.9117 147.633 14.7497 147.549 15.6716C146.292 27.4043 146.627 39.2208 147.968 50.9535C148.22 53.2162 148.722 55.3951 150.147 57.4065C153.918 55.898 157.773 54.3057 161.545 52.6296C162.299 52.2943 162.215 51.7077 162.299 51.1211C162.466 49.026 162.55 46.9309 162.802 44.9195C163.304 40.1426 164.143 35.4496 164.981 30.7565C165.483 27.8233 165.902 24.9739 166.992 22.2084C167.411 21.2865 167.746 20.4485 168.417 19.6942C169.255 18.6886 170.009 18.7724 170.847 19.778C171.434 20.4485 171.769 21.2865 172.02 22.1246C172.858 24.8901 173.026 27.6557 173.026 30.5051C172.942 36.958 172.355 43.2434 170.679 49.5288C170.176 51.3725 170.512 51.8753 172.272 52.462C176.043 53.8028 179.73 55.1437 183.418 56.4846C185.177 57.0712 185.261 56.9874 185.68 55.1437C186.183 53.1324 186.602 51.0373 186.937 48.9422C188.027 42.573 189.032 36.2876 188.613 29.8346C188.194 24.5549 187.608 19.359 185.932 14.3307C184.926 11.3137 183.166 8.79957 180.568 6.95587C177.467 4.86074 173.445 4.27411 169.841 7.03967C168.668 7.96152 167.578 9.051 166.657 10.2243C164.394 13.0736 163.137 16.4258 162.215 19.8618C160.874 24.8063 160.036 29.7508 159.198 34.7791Z" fill="#00BC7D"/>
<path d="M208.391 52.8809C208.308 52.7133 208.308 52.5457 208.308 52.2943C207.302 45.7575 206.296 39.2207 205.626 32.6001C205.291 28.9127 204.788 25.2253 204.453 21.5379C204.369 20.4484 203.866 19.9456 202.86 19.8618C200.681 19.6104 198.503 19.2751 196.324 19.0237C194.983 18.9399 194.983 18.9399 194.731 20.3646C194.564 21.5379 194.48 22.7111 194.396 23.8844C193.726 29.4155 192.971 34.9466 193.055 40.5616C193.055 42.9919 193.055 45.3385 193.055 47.685C193.055 50.1153 193.39 52.4619 193.809 54.8084C194.229 56.6521 194.48 56.9035 196.407 56.6521C199.76 56.2331 203.196 55.6465 206.632 55.2275C208.475 55.0598 208.643 55.0598 208.391 52.8809ZM199.592 16.0067C200.681 16.0905 201.687 15.7553 202.609 15.0011C204.872 12.9898 205.877 10.4756 205.542 7.45863C205.207 4.86068 203.531 3.5198 201.184 2.59795C198.251 1.50848 195.821 2.34653 194.396 5.11209C193.642 6.62058 193.307 8.29669 193.39 10.0566C193.474 13.6602 195.821 15.9229 199.592 16.0067Z" fill="#00BC7D"/>
<path d="M225.404 33.606C224.817 33.1031 224.817 32.6841 224.733 32.2651C223.392 25.8121 222.47 19.3591 222.051 12.7385C221.968 10.811 221.884 10.811 220.04 10.6434C219.537 10.5596 219.034 10.4758 218.615 10.3082C217.61 10.1406 216.604 9.80538 215.598 9.63778C214.509 9.47016 214.341 9.55397 214.174 10.7272C213.922 12.4033 213.671 13.9956 213.503 15.5879C212.833 25.4769 212.162 35.3659 213.839 45.2549C214.425 48.8585 214.928 52.4621 216.101 55.9819C216.52 57.3228 216.604 57.4066 217.945 56.9037C222.051 55.479 226.158 53.9706 230.348 52.5459C231.102 52.2945 231.354 51.8755 231.102 51.0374C230.516 48.6909 230.18 46.3443 230.013 43.9978C229.761 39.4723 229.929 35.0307 230.18 30.589C230.264 28.1587 230.599 25.7283 231.186 23.3818C231.521 22.0409 232.108 20.7 233.281 19.862C234.79 18.6887 235.712 18.9401 236.214 20.7838C236.382 21.1191 236.466 21.5381 236.466 21.8733C237.136 25.2255 237.304 28.5777 236.969 32.0137C236.466 37.461 235.879 42.9083 235.293 48.2718C235.209 49.0261 234.957 49.6965 234.957 50.367C234.874 51.7917 235.293 52.2945 236.717 52.5459C239.734 53.2163 242.835 53.8868 245.936 54.5572C247.612 54.8924 247.696 54.8924 248.115 53.2163C248.701 50.4508 249.288 47.6014 249.623 44.752C250.294 39.3885 251.551 34.2764 252.724 29.0805C252.975 28.0749 253.227 27.0692 253.897 26.315C254.484 25.7283 254.987 25.7283 255.489 26.2312C256.244 26.9016 256.579 27.7396 256.83 28.6615C257.585 31.5947 257.92 34.6117 258.004 37.6286C258.087 42.8245 257.92 48.0204 256.914 53.2163C256.663 54.7248 256.83 55.06 258.423 55.3115C261.942 55.9819 265.546 56.3171 269.066 56.6523C270.993 56.82 271.161 56.6523 271.329 54.8086C271.664 52.1269 271.831 49.5289 271.999 46.931C272.586 38.8857 272.502 30.9242 271.496 23.0466C271.077 20.1134 270.407 17.3478 268.982 14.7499C267.474 12.1519 264.876 11.0625 261.942 11.7329C258.842 12.571 256.579 14.6661 254.735 17.0964C253.059 19.2754 252.054 21.7895 251.215 24.3874C251.132 24.8065 251.132 25.3931 250.545 25.6445C250.377 24.2198 250.21 22.879 250.042 21.4543C249.456 18.1021 248.953 14.6661 247.277 11.5653C245.684 8.54834 243.505 6.2856 240.153 5.27993C237.807 4.6933 235.628 5.02852 233.7 6.45321C231.27 8.21311 229.678 10.5596 228.588 13.3252C226.996 17.0126 226.325 20.9515 225.906 24.9741C225.571 27.7397 225.571 30.589 225.404 33.606Z" fill="#00BC7D"/>
<path d="M302.001 46.8471C302.169 48.7746 301.833 50.1993 301.582 51.7078C301.414 53.1325 301.414 53.2163 302.588 53.6353C305.688 54.641 308.789 55.479 311.806 56.4847C312.309 56.6523 312.644 56.5685 312.812 56.0657C313.063 55.3114 313.482 54.641 313.65 53.9706C314.739 49.7803 315.494 45.5901 315.745 41.316C315.996 35.6173 315.494 29.9186 314.404 24.3036C313.482 19.7782 312.058 15.5041 309.124 11.9843C305.437 7.45883 300.995 4.77707 294.878 5.69892C287.67 6.87219 282.894 10.811 280.379 17.5992C279.793 18.9401 279.96 19.1077 281.385 19.4429C282.223 19.6943 282.391 19.1077 282.726 18.7725C285.575 15.4203 291.442 14.5822 294.878 17.1802C298.816 20.281 300.493 24.6388 301.414 29.4157C300.828 28.9129 300.409 28.41 299.99 27.8234C298.984 26.4825 297.727 25.3931 296.135 24.555C292.447 22.6275 288.844 22.7951 285.408 25.3931C283.732 26.7339 282.391 28.2424 281.301 30.0023C278.284 34.9468 276.692 40.3103 276.692 46.0929C276.608 48.5232 276.943 50.8698 277.949 53.1325C279.458 56.4009 282.139 57.9932 285.743 57.8255C288.173 57.7417 290.268 56.8199 292.196 55.479C293.537 54.5572 294.794 53.4677 296.135 52.4621C298.146 50.8698 299.906 48.9422 302.001 46.8471ZM288.592 47.9366C289.179 43.9978 290.352 39.8075 293.369 36.3715C293.956 35.7011 294.626 35.1983 295.464 34.7792C296.721 34.025 297.895 34.1088 298.816 35.1982C299.99 36.6229 300.744 38.299 300.912 40.1427C300.995 40.8132 300.828 41.3998 300.493 41.9026C297.895 45.2548 294.71 47.8528 291.106 49.9479C291.023 49.9479 291.023 50.0317 290.939 50.0317C289.179 50.786 288.508 50.3669 288.592 47.9366Z" fill="#00BC7D"/>
<path d="M345.244 48.7747C343.065 49.6127 340.97 50.1994 338.707 49.8641C336.193 49.5289 334.769 48.1042 334.433 45.5901C334.433 45.0872 334.35 44.5844 334.35 44.0816C334.433 36.3715 335.104 28.7453 336.193 21.0352C336.696 17.5154 337.367 13.9956 338.121 10.5596C338.456 9.05112 338.121 8.7997 336.696 8.46448C333.093 7.79404 329.573 7.12361 325.969 6.53698C322.868 5.95034 322.617 6.11795 322.03 9.21872C322.03 9.38634 322.03 9.47014 322.03 9.63774C321.36 13.0737 321.025 16.5936 320.689 20.0296C320.103 27.572 319.684 35.1145 320.522 42.5731C320.941 46.0091 321.444 49.3613 323.12 52.3783C324.544 54.8924 326.556 56.4847 329.405 56.9875C331.416 57.3228 333.428 57.3228 335.355 56.6523C338.624 55.4791 341.641 54.0544 344.49 52.1268C346.082 51.0374 346.082 51.0374 345.244 48.7747Z" fill="#00BC7D"/>
<path d="M365.441 52.8809C365.357 52.7133 365.358 52.5457 365.358 52.2943C364.352 45.7575 363.346 39.2207 362.676 32.6001C362.341 28.9127 361.838 25.2253 361.502 21.5379C361.419 20.4484 360.916 19.9456 359.91 19.8618C357.731 19.6104 355.552 19.2751 353.373 19.0237C352.033 18.9399 352.033 18.9399 351.781 20.3646C351.614 21.5379 351.53 22.7111 351.446 23.8844C350.775 29.4155 350.021 34.9466 350.105 40.5616C350.105 42.9919 350.105 45.3385 350.105 47.685C350.105 50.1153 350.44 52.4619 350.859 54.8084C351.278 56.6521 351.53 56.9035 353.457 56.6521C356.809 56.2331 360.245 55.6465 363.681 55.2275C365.525 55.0598 365.693 55.0598 365.441 52.8809ZM356.642 16.0067C357.731 16.0905 358.737 15.7553 359.659 15.0011C361.921 12.9898 362.927 10.4756 362.592 7.45863C362.257 4.86068 360.581 3.5198 358.234 2.59795C355.301 1.50848 352.871 2.34653 351.446 5.11209C350.692 6.62058 350.356 8.29669 350.44 10.0566C350.524 13.6602 352.871 15.9229 356.642 16.0067Z" fill="#00BC7D"/>
<path d="M392.678 25.0579C395.946 21.2029 399.215 17.4317 402.399 13.5766C403.321 12.4872 403.321 12.4872 402.483 11.3139C398.879 6.62081 393.851 4.60949 388.152 4.19046C384.549 3.85524 381.197 5.11232 378.012 6.537C375.247 7.79407 373.151 9.63779 371.727 12.3195C370.805 14.0794 370.134 15.9231 369.967 17.8507C369.38 24.0522 370.805 29.5834 376.085 33.5222C378.683 35.6173 381.448 37.461 384.214 39.3047C384.884 39.8076 385.638 40.3104 386.141 41.0646C387.566 42.9083 386.393 45.5901 384.13 45.9253C383.124 46.0929 382.286 45.8415 381.364 45.5063C379.521 44.5844 378.18 42.9921 376.923 41.5674C376.336 40.897 375.917 40.8132 375.33 41.3998C374.492 42.1541 373.654 42.9083 372.816 43.5788C372.23 44.0816 372.146 44.5844 372.397 45.2549C373.235 47.4338 374.325 49.4451 375.749 51.2888C377.761 53.7192 380.191 55.3953 383.292 55.8981C386.979 56.4847 390.415 56.0657 393.851 54.7248C396.701 53.6354 398.796 51.9593 400.556 49.3613C405.165 42.4055 402.567 34.025 397.036 30.0862C395.192 28.8291 393.265 27.572 391.253 26.5664C388.739 25.3931 386.309 24.136 383.878 22.7951C383.208 22.4599 382.705 22.0409 382.957 21.2028C383.208 20.3648 383.962 19.862 384.8 19.862C385.052 19.862 385.303 19.9458 385.555 20.0296C387.65 20.7838 389.577 21.7057 391.086 23.4656C391.505 24.0522 391.84 24.6389 392.678 25.0579Z" fill="#00BC7D"/>
<path fill-rule="evenodd" clip-rule="evenodd" d="M27.5558 21.7052C32.6822 21.347 36.4933 16.2017 36.0796 10.2165C35.6592 4.22563 31.1691 -0.338436 26.0488 0.0197168C20.9224 0.37787 17.1116 5.52319 17.5254 11.5074C17.9454 17.4993 22.4356 22.0634 27.5558 21.7052Z" fill="#00BC7D"/>
<path fill-rule="evenodd" clip-rule="evenodd" d="M57.6168 16.2516C55.8749 22.1563 50.3657 25.7264 45.319 24.2315C40.2733 22.7367 37.5929 16.7458 39.3405 10.8468C41.0825 4.94203 46.5917 1.37199 51.6374 2.86685C56.6841 4.36171 59.3645 10.3526 57.6168 16.2516Z" fill="#00BC7D"/>
<path fill-rule="evenodd" clip-rule="evenodd" d="M13.7641 30.587C17.6985 28.4802 18.8843 23.0447 16.4199 18.45C13.9556 13.8543 8.77358 11.8347 4.83917 13.9472C0.904853 16.053 -0.281062 21.4885 2.18328 26.0842C4.64774 30.6789 9.82974 32.6985 13.7641 30.587Z" fill="#00BC7D"/>
<path fill-rule="evenodd" clip-rule="evenodd" d="M66.8876 22.5268C63.2429 19.9575 57.8514 21.3221 54.8435 25.5836C51.8356 29.846 52.3547 35.3801 55.9984 37.9552C59.6422 40.5245 65.0346 39.1599 68.0425 34.8975C71.0504 30.636 70.5314 25.1019 66.8876 22.5268Z" fill="#00BC7D"/>
<path fill-rule="evenodd" clip-rule="evenodd" d="M33.0655 23.7985C33.0655 23.7985 41.0203 23.7248 45.3507 30.2596H45.3631C49.6926 36.7945 56.6593 47.7449 56.6593 47.7449C56.6593 47.7449 59.2842 62.185 44.2571 59.7143C40.5827 59.1091 36.9322 57.4294 33.0717 57.4294C29.2114 57.4294 25.555 59.1091 21.8863 59.7143C6.85913 62.1917 9.48406 47.7449 9.48406 47.7449C9.48406 47.7449 16.451 36.7945 20.7807 30.2596C25.1103 23.719 33.0655 23.7985 33.0655 23.7985Z" fill="#00BC7D"/>
</svg>
