<svg width="400" height="424" viewBox="0 0 400 424" fill="none" xmlns="http://www.w3.org/2000/svg">
<path d="M81.782 423.787C85.9598 423.787 88.297 421.829 88.7352 421.449C89.1734 421.07 89.5532 420.661 89.5532 420.076C89.5532 419.346 88.9689 418.762 88.2385 418.762C87.8295 418.762 87.5958 418.878 87.1868 419.258C85.6676 420.485 83.7394 421.157 81.782 421.157C77.3414 421.157 73.1928 416.979 73.1928 412.626C73.1928 407.952 76.8739 404.037 81.7236 404.037C83.7394 404.037 85.6676 404.709 87.1868 405.936C87.5958 406.316 87.8295 406.433 88.2385 406.433C88.9689 406.433 89.5532 405.849 89.5532 405.118C89.5532 404.534 89.1734 404.125 88.7644 403.774C88.297 403.365 85.9598 401.408 81.782 401.408C75.6177 401.408 70.5635 406.491 70.5635 412.626C70.5635 418.732 75.6469 423.787 81.782 423.787Z" fill="white"/>
<path d="M115.381 412.598C115.381 418.791 120.377 423.787 126.57 423.787C132.764 423.787 137.76 418.791 137.76 412.598C137.76 406.404 132.764 401.408 126.57 401.408C120.377 401.408 115.381 406.404 115.381 412.598ZM118.01 412.598C118.01 407.865 121.867 404.038 126.57 404.038C131.303 404.038 135.13 407.865 135.13 412.598C135.13 417.301 131.303 421.157 126.57 421.157C121.867 421.157 118.01 417.301 118.01 412.598Z" fill="white"/>
<path d="M164.737 423.67C165.496 423.67 166.051 423.144 166.051 422.413V405.907C166.051 405.849 166.08 405.79 166.11 405.79C166.139 405.79 166.168 405.819 166.197 405.878L176.072 422.384C176.481 423.085 177.182 423.67 178.146 423.67C179.169 423.67 180.045 422.676 180.045 421.625V402.781C180.045 402.05 179.49 401.525 178.731 401.525C178 401.525 177.416 402.08 177.416 402.781V419.433C177.416 419.492 177.416 419.521 177.387 419.521C177.357 419.521 177.328 419.492 177.299 419.433L167.366 402.781C166.957 402.109 166.256 401.525 165.321 401.525C164.269 401.525 163.422 402.518 163.422 403.599V422.413C163.422 423.115 164.006 423.67 164.737 423.67Z" fill="white"/>
<path d="M215.744 402.956C215.744 402.197 215.218 401.642 214.488 401.642H203.036C202.305 401.642 201.78 402.197 201.78 402.956C201.78 403.687 202.335 404.271 203.036 404.271H207.214C207.33 404.271 207.418 404.329 207.418 404.505V422.413C207.418 423.115 208.002 423.67 208.733 423.67C209.492 423.67 210.047 423.144 210.047 422.413V404.505C210.047 404.359 210.106 404.271 210.281 404.271H214.488C215.189 404.271 215.744 403.687 215.744 402.956Z" fill="white"/>
<path d="M249.553 423.348C249.786 423.115 249.933 422.764 249.933 422.443C249.933 422.267 249.903 422.092 249.816 421.917L245.609 414.555C245.579 414.496 245.55 414.438 245.55 414.379C245.55 414.321 245.58 414.262 245.638 414.233C247.712 413.035 248.998 410.844 248.998 408.215C248.998 404.505 246.544 401.642 242.629 401.642H239.152C237.867 401.642 237.107 402.664 237.107 403.979V422.413C237.107 423.115 237.691 423.67 238.422 423.67C239.181 423.67 239.737 423.144 239.737 422.413V415.139C239.737 415.022 239.795 414.964 239.912 414.964H242.629C242.804 414.964 242.863 414.993 242.95 415.139L247.42 422.998C247.683 423.436 248.092 423.728 248.559 423.728C248.968 423.728 249.319 423.582 249.553 423.348ZM239.737 404.505C239.737 404.329 239.824 404.242 239.999 404.242H242.512C245.696 404.242 246.368 406.608 246.368 408.186C246.368 410.114 245.696 412.363 242.512 412.363H239.999C239.824 412.363 239.737 412.305 239.737 412.159V404.505Z" fill="white"/>
<path d="M272.386 412.598C272.386 418.791 277.381 423.787 283.575 423.787C289.769 423.787 294.764 418.791 294.764 412.598C294.764 406.404 289.769 401.408 283.575 401.408C277.381 401.408 272.386 406.404 272.386 412.598ZM275.015 412.598C275.015 407.865 278.871 404.038 283.575 404.038C288.308 404.038 292.135 407.865 292.135 412.598C292.135 417.301 288.308 421.157 283.575 421.157C278.871 421.157 275.015 417.301 275.015 412.598Z" fill="white"/>
<path d="M329.437 422.238C329.437 421.478 328.911 420.923 328.181 420.923H321.432C321.286 420.923 321.257 420.836 321.257 420.748V402.752C321.257 402.021 320.702 401.495 319.942 401.495C319.212 401.495 318.627 402.05 318.627 402.752V422.296C318.627 423.231 319.358 423.553 319.884 423.553H328.181C328.882 423.553 329.437 422.968 329.437 422.238Z" fill="white"/>
<path d="M44.1118 306.471H26.5747L0 382.645H20.6572L25.3912 367.367H45.7256L50.6747 382.645H71.3319L44.1118 306.471ZM29.6948 350.26L35.2894 327.989H35.8273L41.0992 350.26H29.6948Z" fill="white"/>
<path d="M82.7554 369.949C89.8563 379.094 99.5394 383.72 108.684 383.72C122.671 383.72 138.164 375.651 138.81 360.911C139.67 342.191 126.114 337.457 112.558 334.982C106.64 333.691 102.659 331.539 102.444 327.881C102.767 319.059 116.431 318.736 124.393 327.236L136.981 317.553C129.127 307.977 120.197 305.395 110.944 305.395C96.9572 305.395 83.4009 313.249 83.4009 328.204C83.4009 342.729 94.5902 350.475 106.855 352.412C113.096 353.272 120.089 355.747 119.874 360.05C119.336 368.227 102.552 367.797 94.913 358.544L82.7554 369.949Z" fill="white"/>
<path d="M154.642 369.949C161.743 379.094 171.426 383.72 180.571 383.72C194.557 383.72 210.05 375.651 210.696 360.911C211.557 342.191 198 337.457 184.444 334.982C178.526 333.691 174.546 331.539 174.331 327.881C174.653 319.059 188.317 318.736 196.279 327.236L208.867 317.553C201.013 307.977 192.083 305.395 182.83 305.395C168.843 305.395 155.287 313.249 155.287 328.204C155.287 342.729 166.476 350.475 178.742 352.412C184.982 353.272 191.975 355.747 191.76 360.05C191.222 368.227 174.438 367.797 166.799 358.544L154.642 369.949Z" fill="white"/>
<path d="M249.447 306.471H230.188V382.645H249.447V306.471Z" fill="white"/>
<path d="M269.046 369.949C276.147 379.094 285.83 383.72 294.975 383.72C308.962 383.72 324.455 375.651 325.101 360.911C325.961 342.191 312.405 337.457 298.849 334.982C292.931 333.691 288.95 331.539 288.735 327.881C289.058 319.059 302.722 318.736 310.684 327.236L323.272 317.553C315.418 307.977 306.488 305.395 297.235 305.395C283.248 305.395 269.692 313.249 269.692 328.204C269.692 342.729 280.881 350.475 293.146 352.412C299.387 353.272 306.38 355.747 306.165 360.05C305.627 368.227 288.843 367.797 281.204 358.544L269.046 369.949Z" fill="white"/>
<path d="M400 324.653V306.363H340.073V324.653H360.3V382.644H379.773V324.653H400Z" fill="white"/>
<path fill-rule="evenodd" clip-rule="evenodd" d="M88.7899 177.911C71.1838 142.171 71.139 98.5502 92.5525 61.4612C114.186 23.9907 152.565 1.86324 192.786 0.015287C201.429 -0.381836 208.404 7.01436 208.404 15.6668C208.404 24.3196 201.336 32.0286 192.71 31.3599C171.667 29.7282 149.895 33.2282 130.216 44.5898C113.309 54.3511 100.13 68.1022 91.3881 84.0579C75.9031 112.323 74.0869 147.236 88.7899 177.911ZM289.105 200.378C281.611 196.052 278.469 186.076 283.361 178.94C295.296 161.532 303.151 140.927 303.151 118.204C303.151 98.6807 297.832 80.3922 288.384 64.8437C271.649 37.3007 242.321 18.271 208.404 15.6668C248.159 18.2898 285.958 40.0613 307.372 77.1503C329.006 114.621 328.978 158.921 310.469 194.677C306.491 202.362 296.598 204.704 289.105 200.378ZM289.105 200.378C269.891 228.449 238.747 244.332 206.526 245.054C188.338 245.462 169.839 240.924 152.932 231.163C133.253 219.801 119.336 202.696 110.228 183.657C106.494 175.851 96.2831 173.585 88.7899 177.911C81.2965 182.237 78.3789 191.976 83.0445 199.263C104.755 233.171 143.107 255.344 186.375 255.344C229.202 255.344 266.956 233.495 289.105 200.378ZM258.082 98.5364C258.936 99.3903 263.346 103.521 267.686 102.562C269.865 103.138 277.098 109.761 278.545 112.41C275.913 115.844 263.189 129.352 259.547 131.914C257.037 130.083 250.013 123.059 248.671 120.794C248.949 119.19 248.758 116.593 247.224 114.345C245.882 112.392 243.023 110.005 237.08 109.726C227.546 109.273 226.326 110.039 225.576 111.259C225.559 111.259 225.559 111.277 225.542 111.294L148.521 190.494C148.434 190.598 148.347 190.686 148.277 190.808C148.259 190.825 146.691 193.038 143.92 193.317C141.323 193.561 138.238 191.993 135.031 188.786C131.841 185.596 130.272 182.546 130.499 179.949C130.743 177.16 132.939 175.591 133.026 175.539C133.131 175.47 133.235 175.382 133.323 175.295L212.836 97.9785C213.097 97.717 213.289 97.4029 213.411 97.0546C213.414 97.0411 213.421 97.0189 213.43 96.988C213.716 95.9804 216.589 85.8811 211.668 77.865C208.757 73.1417 203.807 70.1784 196.975 69.0454C195.58 68.8187 194.239 68.7319 192.949 68.7319C190.16 68.7319 187.668 69.1504 185.68 69.4813C184.182 69.7428 182.142 70.0916 181.742 69.9169C181.742 69.9169 181.48 69.4813 181.672 67.8256C181.899 65.7688 184.042 63.4685 187.563 61.5508C194.291 57.856 205.515 55.921 213.08 59.6337C219.442 62.7535 224.112 65.647 227.511 67.7383L227.557 67.7667C231.428 70.1689 233.043 71.1709 234.64 70.9454C235.599 70.806 236.505 70.3178 237.394 69.8472C238.091 69.4813 239.398 68.8018 239.764 68.9933C241.681 70.0916 254.37 82.0478 255.834 84.697C255.869 85.1329 255.886 85.7432 255.904 86.4923C256.061 93.1854 256.444 96.8976 258.082 98.5364ZM156.504 117.604C155.963 117.046 155.144 116.819 154.377 117.029C145.523 119.347 136.024 116.785 129.558 110.319C122.656 103.416 120.303 93.2028 123.283 84.087L138.116 98.9194C141.375 102.179 146.691 102.179 149.95 98.9194L155.144 93.7257C158.403 90.4663 158.403 85.1502 155.144 81.891L140.556 67.3027C149.549 64.6357 159.275 67.0412 166.055 73.8211C172.504 80.2872 175.084 89.8042 172.765 98.6582C172.556 99.4077 172.783 100.227 173.34 100.785L185.227 112.671L168.164 129.264L156.504 117.604ZM225.524 152.968C226.082 153.526 226.901 153.753 227.651 153.543C236.505 151.225 246.021 153.805 252.488 160.254C259.39 167.156 261.743 177.369 258.762 186.503L243.93 171.653C240.775 168.498 235.25 168.498 232.095 171.653L226.901 176.864C225.315 178.433 224.461 180.524 224.461 182.773C224.461 185.003 225.315 187.112 226.901 188.681L241.49 203.27C232.496 205.936 222.77 203.531 215.991 196.751C209.524 190.285 206.962 180.786 209.28 171.931C209.489 171.165 209.262 170.345 208.705 169.788L194.552 155.652L211.162 138.589L211.18 138.606L225.524 152.968Z" fill="white"/>
</svg>
