<svg width="420" height="26" viewBox="0 0 420 26" fill="none" xmlns="http://www.w3.org/2000/svg">
<path d="M2.21431 23.2781V2.73818C2.21431 2.02696 1.99238 1.45302 1.54852 1.01639C1.10466 0.579749 0.58849 0.36145 0 0.36145H12.8071C16.5574 0.47849 19.2056 1.3315 20.7516 2.9205C22.2977 4.50949 22.7515 6.23578 22.1131 8.09936C21.4748 9.96294 19.7442 11.3584 16.9215 12.2857C19.8739 13.294 21.7042 14.8447 22.4124 16.9379C23.1205 19.031 22.7016 20.9779 21.1556 22.7785C19.6096 24.579 16.9414 25.5379 13.1512 25.6549H0C0.58849 25.6549 1.10466 25.4366 1.54852 24.9999C1.99238 24.5633 2.21431 23.9893 2.21431 23.2781ZM11.3857 11.759C13.3307 11.705 14.7695 11.1671 15.7021 10.1452C16.6347 9.12342 17.0836 7.94181 17.0487 6.60038C17.0138 5.25896 16.5125 4.06384 15.545 3.01501C14.5775 1.96618 13.1711 1.44177 11.3259 1.44177H7.51069V11.759H11.3857ZM7.51069 12.8393V24.5745H11.7298C13.2858 24.5745 14.5177 24.1761 15.4253 23.3794C16.333 22.5826 16.9265 21.6058 17.2058 20.449C17.485 19.2921 17.4601 18.133 17.131 16.9716C16.8018 15.8103 16.1809 14.8312 15.2682 14.0345C14.3556 13.2377 13.1562 12.8393 11.67 12.8393H7.51069Z" fill="#2D2926"/>
<path d="M35.773 2.73808V22.6568C35.773 23.5571 35.5511 24.2818 35.1072 24.831C34.6634 25.3802 34.1472 25.6548 33.5587 25.6548H55.0584L55.9112 20.9688C55.5023 21.9321 54.7268 22.7671 53.5847 23.4738C52.4427 24.1806 50.9989 24.5339 49.2534 24.5339H41.0694V2.73808C41.0694 2.02686 41.2913 1.45293 41.7352 1.0163C42.1791 0.579655 42.6952 0.361328 43.2837 0.361328H41.0694H33.5587C34.1472 0.361328 34.6634 0.579664 35.1072 1.0163C35.5511 1.45294 35.773 2.02686 35.773 2.73808Z" fill="#2D2926"/>
<path d="M85.4752 23.4536L83.7247 19.3753H73.2367L71.5012 23.4536C71.2418 24.1198 71.2842 24.6532 71.6283 25.0538C71.9724 25.4545 72.4637 25.6548 73.102 25.6548H66.5638C67.2122 25.6548 67.858 25.4545 68.5014 25.0538C69.1447 24.6532 69.621 24.1198 69.9302 23.4536L79.8198 0.361328H81.3608L91.2504 23.4536C91.5496 24.1198 92.0234 24.6532 92.6717 25.0538C93.3201 25.4545 93.9634 25.6548 94.6018 25.6548H83.994C84.6324 25.6548 85.1037 25.4545 85.4079 25.0538C85.7121 24.6532 85.7346 24.1198 85.4752 23.4536ZM73.7304 18.2274H83.231L78.4732 7.11345L73.7304 18.2274Z" fill="#2D2926"/>
<path d="M128.594 22.1167C124.156 23.6832 120.241 23.6427 116.85 21.9952C113.458 20.3477 111.628 17.4262 111.359 13.2309C111.299 11.5294 111.623 9.76933 112.331 7.95076C113.039 6.13219 114.209 4.66022 115.84 3.53487C117.47 2.40952 119.642 2.0269 122.355 2.38701V8.11281L128.22 2.87318C126.076 1.45073 123.438 0.608958 120.306 0.347873C116.924 0.239841 114.132 0.822784 111.927 2.09668C109.723 3.37058 108.105 5.04734 107.072 7.12699C106.04 9.20665 105.593 11.3989 105.733 13.7036C106.032 17.3677 107.409 20.2599 109.862 22.38C112.316 24.5002 115.251 25.6031 118.667 25.6886C122.084 25.7741 125.393 24.5835 128.594 22.1167Z" fill="#2D2926"/>
<path d="M141.895 2.73808C141.895 9.58923 141.895 16.4359 141.895 23.278C141.895 23.9892 141.673 24.5632 141.229 24.9998C140.785 25.4364 140.269 25.6548 139.681 25.6548H147.177H149.406C148.817 25.6548 148.299 25.4364 147.85 24.9998C147.401 24.5632 147.177 23.9892 147.177 23.278V16.3098L148.029 15.3375L155.301 23.278C156.508 24.8625 157.799 25.6548 159.176 25.6548H166.118C165.529 25.6548 164.781 25.3307 163.874 24.6825C162.966 24.0343 162.228 23.332 161.659 22.5758L151.515 11.4078L158.248 3.68338C158.936 2.94514 159.789 2.32847 160.807 1.83331C161.824 1.33815 162.804 0.969021 163.746 0.725942C164.689 0.482864 165.345 0.361328 165.714 0.361328H156.004C156.592 0.361328 157.031 0.70119 157.32 1.38091C157.61 2.06062 157.48 2.80111 156.931 3.60237L147.177 14.6893V2.73808C147.177 2.02686 147.401 1.45293 147.85 1.0163C148.299 0.579655 148.817 0.361356 149.406 0.361356H147.177H139.681C140.269 0.361356 140.785 0.579664 141.229 1.0163C141.673 1.45294 141.895 2.02686 141.895 2.73808Z" fill="#2D2926"/>
<path d="M227.101 22.1167C222.662 23.6832 218.748 23.6427 215.356 21.9952C211.965 20.3477 210.135 17.4262 209.865 13.2309C209.806 11.5294 210.13 9.76933 210.838 7.95076C211.546 6.13219 212.716 4.66022 214.346 3.53487C215.977 2.40952 218.149 2.0269 220.862 2.38701V8.11281L226.727 2.87318C224.582 1.45073 221.944 0.608958 218.812 0.347873C215.431 0.239841 212.638 0.822784 210.434 2.09668C208.23 3.37058 206.611 5.04734 205.579 7.12699C204.547 9.20665 204.1 11.3989 204.24 13.7036C204.539 17.3677 205.916 20.2599 208.369 22.38C210.823 24.5002 213.758 25.6031 217.174 25.6886C220.59 25.7741 223.899 24.5835 227.101 22.1167Z" fill="#2D2926"/>
<path d="M240.147 2.73808V22.6568C240.147 23.5571 239.926 24.2818 239.482 24.831C239.038 25.3802 238.522 25.6548 237.933 25.6548H259.433L260.286 20.9688C259.877 21.9321 259.101 22.7671 257.959 23.4738C256.817 24.1806 255.373 24.5339 253.628 24.5339H245.444V2.73808C245.444 2.02686 245.666 1.45293 246.11 1.0163C246.554 0.579655 247.07 0.361328 247.658 0.361328H245.444H237.933C238.522 0.361328 239.038 0.579664 239.482 1.0163C239.926 1.45294 240.147 2.02686 240.147 2.73808Z" fill="#2D2926"/>
<path d="M289.85 23.4536L288.099 19.3753H277.611L275.876 23.4536C275.616 24.1198 275.659 24.6532 276.003 25.0538C276.347 25.4545 276.838 25.6548 277.476 25.6548H270.938C271.587 25.6548 272.232 25.4545 272.876 25.0538C273.519 24.6532 273.995 24.1198 274.305 23.4536L284.194 0.361328H285.735L295.625 23.4536C295.924 24.1198 296.398 24.6532 297.046 25.0538C297.695 25.4545 298.338 25.6548 298.976 25.6548H288.368C289.007 25.6548 289.478 25.4545 289.782 25.0538C290.087 24.6532 290.109 24.1198 289.85 23.4536ZM278.105 18.2274H287.605L282.848 7.11345L278.105 18.2274Z" fill="#2D2926"/>
<path d="M323.184 15.8912C324.501 16.1343 325.64 16.6092 326.603 17.3159C327.565 18.0226 328.106 18.9567 328.226 20.118C328.306 21.3424 327.722 22.3845 326.475 23.2443C325.229 24.104 323.453 24.5339 321.149 24.5339C318.656 24.5339 316.386 23.8632 314.342 22.5218C312.297 21.1804 310.856 19.6364 310.018 17.8898V22.7784C311.384 23.5526 313.077 24.2256 315.097 24.7973C317.117 25.3689 319.289 25.6548 321.613 25.6548C324.077 25.6548 326.136 25.2226 327.792 24.3584C329.448 23.4941 330.645 22.4093 331.383 21.1039C332.121 19.7984 332.355 18.4503 332.086 17.0593C331.817 15.6684 330.996 14.417 329.625 13.3051C328.253 12.1933 326.286 11.4033 323.723 10.9352L318.965 10.1114C317.349 9.7783 316.132 9.22238 315.314 8.44363C314.496 7.66489 314.052 6.81638 313.983 5.89808C313.913 4.6737 314.501 3.63162 315.748 2.77185C316.995 1.91208 318.765 1.48219 321.059 1.48219C321.788 1.48219 322.608 1.60598 323.521 1.85356C324.433 2.10113 325.179 2.39597 325.757 2.73808V8.67994L332.191 3.23772C330.705 2.41846 328.887 1.73426 326.737 1.18509C324.588 0.635915 322.546 0.361328 320.611 0.361328C318.137 0.361328 316.072 0.793465 314.417 1.65774C312.761 2.52201 311.566 3.60686 310.833 4.91227C310.1 6.21768 309.868 7.56586 310.138 8.9568C310.407 10.3477 311.227 11.5991 312.599 12.711C313.97 13.8228 315.933 14.6128 318.486 15.081L323.184 15.8912Z" fill="#2D2926"/>
<path d="M356.428 15.8912C357.745 16.1343 358.885 16.6092 359.847 17.3159C360.81 18.0226 361.351 18.9567 361.471 20.118C361.55 21.3424 360.967 22.3845 359.72 23.2443C358.473 24.104 356.698 24.5339 354.394 24.5339C351.9 24.5339 349.631 23.8632 347.586 22.5218C345.541 21.1804 344.1 19.6364 343.262 17.8898V22.7784C344.629 23.5526 346.322 24.2256 348.342 24.7973C350.362 25.3689 352.533 25.6548 354.858 25.6548C357.321 25.6548 359.381 25.2226 361.037 24.3584C362.692 23.4941 363.889 22.4093 364.627 21.1039C365.366 19.7984 365.6 18.4503 365.331 17.0593C365.061 15.6684 364.241 14.417 362.869 13.3051C361.498 12.1933 359.531 11.4033 356.967 10.9352L352.209 10.1114C350.593 9.7783 349.377 9.22238 348.559 8.44363C347.741 7.66489 347.297 6.81638 347.227 5.89808C347.157 4.6737 347.746 3.63162 348.993 2.77185C350.239 1.91208 352.01 1.48219 354.304 1.48219C355.032 1.48219 355.852 1.60598 356.765 1.85356C357.678 2.10113 358.423 2.39597 359.002 2.73808V8.67994L365.435 3.23772C363.949 2.41846 362.131 1.73426 359.982 1.18509C357.832 0.635915 355.79 0.361328 353.855 0.361328C351.381 0.361328 349.317 0.793465 347.661 1.65774C346.005 2.52201 344.811 3.60686 344.078 4.91227C343.345 6.21768 343.113 7.56586 343.382 8.9568C343.651 10.3477 344.472 11.5991 345.843 12.711C347.215 13.8228 349.177 14.6128 351.731 15.081L356.428 15.8912Z" fill="#2D2926"/>
<path d="M378.467 2.73818C378.467 9.58932 378.467 16.436 378.467 23.2781C378.467 23.9893 378.245 24.5633 377.801 24.9999C377.357 25.4365 376.841 25.6549 376.253 25.6549H383.748H385.977C385.389 25.6549 384.87 25.4365 384.421 24.9999C383.973 24.5633 383.748 23.9893 383.748 23.2781C383.748 16.436 383.748 9.58932 383.748 2.73818C383.748 2.02696 383.973 1.45302 384.421 1.01639C384.87 0.579749 385.389 0.36145 385.977 0.36145H383.748H376.253C376.841 0.36145 377.357 0.579758 377.801 1.01639C378.245 1.45303 378.467 2.02696 378.467 2.73818Z" fill="#2D2926"/>
<path d="M420 22.1167C415.561 23.6832 411.646 23.6427 408.255 21.9952C404.864 20.3477 403.034 17.4262 402.764 13.2309C402.704 11.5294 403.029 9.76933 403.737 7.95076C404.445 6.13219 405.614 4.66022 407.245 3.53487C408.876 2.40952 411.048 2.0269 413.761 2.38701V8.11281L419.626 2.87318C417.481 1.45073 414.843 0.608958 411.711 0.347873C408.33 0.239841 405.537 0.822784 403.333 2.09668C401.129 3.37058 399.51 5.04734 398.478 7.12699C397.445 9.20665 396.999 11.3989 397.139 13.7036C397.438 17.3677 398.814 20.2599 401.268 22.38C403.722 24.5002 406.657 25.6031 410.073 25.6886C413.489 25.7741 416.798 24.5835 420 22.1167Z" fill="#2D2926"/>
</svg>
