<svg width="44" height="101" viewBox="0 0 44 101" fill="none" xmlns="http://www.w3.org/2000/svg">
<path fill-rule="evenodd" clip-rule="evenodd" d="M30.3976 6.10944C33.1317 3.67255 35.6735 1.80232 37.4571 0.915899C38.0265 0.632654 38.577 0.423331 38.6806 0.450345C39.3987 0.637923 42.1982 10.99 43.031 16.5363C43.4735 19.4831 43.4867 24.597 43.0572 26.6693C41.6282 33.5625 37.2926 39.1645 30.0663 43.4539C28.7677 44.2247 27.0426 45.8942 26.4527 46.9507C25.409 48.821 24.6152 51.5952 24.1663 54.9421C23.9353 56.6638 23.8363 59.37 23.7663 65.8713C23.593 81.9536 24.3555 88.6013 26.6058 90.6325C27.0273 91.0132 27.3981 91.1069 29.4966 91.3636C35.459 92.0936 39.716 93.8254 39.716 95.521C39.716 97.5162 35.798 99.0668 28.6498 99.9008C25.7286 100.241 18.4552 100.29 15.7143 99.9875C7.06223 99.0321 2.74587 96.8521 4.76786 94.4595C5.82958 93.2032 9.65495 91.9671 14.3024 91.3788C15.4931 91.2282 16.6379 91.0749 16.8464 91.0383C17.3871 90.9433 18.3556 89.3973 18.8127 87.8996C19.791 84.6935 20.2106 78.7241 20.2161 67.9348C20.2221 55.4979 19.6751 51.1867 17.6075 47.381C16.5251 45.3879 15.4647 44.3307 13.0787 42.8648C5.61911 38.2816 1.45636 32.0639 0.725959 24.4141C0.245929 19.3868 1.56348 11.4809 4.25449 3.24063C4.83711 1.45656 5.07165 0.710307 5.5163 0.588484C5.84254 0.499109 6.28211 0.746322 7.05524 1.16652C8.72349 2.07335 10.529 3.44233 13.5494 6.0911L16.2791 8.48483L22.0206 8.47176L27.7622 8.45849L30.3976 6.10944ZM1.9426 16.6213C2.52504 12.7612 4.46551 4.95184 5.49558 2.32227C5.62905 1.98193 5.79925 1.81863 5.96189 1.87505C6.59554 2.09458 6.569 2.54042 5.74485 5.50794C4.74091 9.12251 3.48265 14.6392 3.11311 17.046C2.13761 23.4016 2.85032 28.0856 5.49558 32.6995C7.71899 36.5777 11.7746 40.3553 15.7233 42.2266C19.682 44.1022 24.1723 44.1236 28.2152 42.286C32.0461 40.5449 36.5603 36.2976 38.7594 32.3656C40.4262 29.3851 41.2984 25.8412 41.296 22.0585C41.2936 18.4403 40.8313 15.743 38.7501 7.20437C37.8451 3.49229 37.6548 2.46465 37.8139 2.14946C37.9239 1.93197 38.0934 1.7539 38.1907 1.7539C38.7259 1.7539 40.906 9.86129 41.8912 15.5168C43.1597 22.7968 42.4902 28.1 39.6784 33.0455C37.4566 36.9533 33.5584 40.6249 29.1615 42.9507C25.791 44.7338 21.2136 45.1166 17.2694 43.9452C14.0722 42.9957 9.36558 39.5792 6.54655 36.1612C4.29887 33.4363 2.82358 30.5046 2.03274 27.1918C1.4855 24.8999 1.44317 19.9316 1.9426 16.6213ZM6.20774 8.97536C6.20774 7.04685 6.39675 5.37525 6.79847 3.75088L6.99799 2.94414L7.49705 3.26509C8.26472 3.7587 10.9919 6.30907 11.9444 7.42388C13.3068 9.01867 12.929 9.07764 11.3492 7.51665C9.38218 5.57318 7.58065 3.96276 7.37336 3.96276C7.18475 3.96276 6.82141 6.51891 6.64182 9.10873C6.57837 10.0232 6.4547 10.8114 6.36716 10.8604C6.27945 10.9093 6.20774 10.0609 6.20774 8.97536ZM31.4769 8.58422C31.3591 8.26511 32.6657 6.74459 34.6088 4.93975C35.6905 3.93524 36.723 3.1132 36.9033 3.1132C37.1402 3.1132 37.2879 3.33697 37.436 3.92027C37.9054 5.77181 38.2144 10.7593 37.8594 10.7593C37.7702 10.7593 37.6423 10.1666 37.5751 9.44243C37.2931 6.39318 37.0179 4.20216 36.8893 3.97993C36.7403 3.72234 34.502 5.63182 32.5613 7.67246C31.9982 8.26428 31.5102 8.6746 31.4769 8.58422ZM11.8051 19.2072C11.0504 17.8946 11.4638 17.1952 13.1733 16.8931C13.639 16.8107 14.0344 16.7351 14.0517 16.7249C14.0692 16.7145 14.2074 16.7492 14.3587 16.8015C14.5743 16.8761 14.5989 17.0333 14.4728 17.5237C14.1081 18.9397 14.4111 20.9239 14.9212 20.4634C15.069 20.3302 15.1495 19.6708 15.1495 18.5938C15.1495 17.0148 15.1688 16.9347 15.5253 17.0188C16.078 17.1493 17.8411 18.8041 17.9872 19.3295C18.1297 19.8419 17.9179 20.0403 16.597 20.6311C14.9357 21.3745 12.663 20.6991 11.8051 19.2072ZM29.6446 20.8493C29.2828 20.9463 29.2682 20.8706 29.2682 18.8962V16.842L30.2642 16.9161C31.5844 17.0143 32.2915 17.4863 32.2494 18.2415C32.1939 19.2391 30.9294 20.5051 29.6446 20.8493ZM25.9738 19.5699C25.9738 19.024 26.691 18.091 27.5346 17.5395C27.9497 17.2681 28.3401 17.046 28.4023 17.0459C28.4645 17.0459 28.5151 17.753 28.5151 18.6175C28.5151 19.4821 28.5883 20.373 28.6781 20.597C28.8352 20.9907 28.8165 21.0013 28.134 20.9013C27.1654 20.7595 25.9738 20.0249 25.9738 19.5699ZM19.7498 23.35C19.8258 23.2392 20.1348 23.0818 20.4365 23.0006C21.6967 22.6602 23.9994 22.9185 24.2144 23.4241C24.3572 23.7611 23.644 24.7409 22.8648 25.2772C22.0993 25.8042 22.0767 25.9164 22.6013 26.5813C23.3854 27.5753 24.9093 27.962 26.2563 27.5089C26.5811 27.3996 26.5716 27.4308 26.1883 27.7363C25.5281 28.2622 24.0238 28.2262 23.1044 27.6624C22.7206 27.4269 22.3101 27.072 22.1925 26.8733C21.982 26.5183 21.9705 26.5215 21.5123 27.0498C21.2559 27.3455 20.8038 27.7006 20.5075 27.8389C19.8904 28.1268 18.6933 28.1676 17.9855 27.9246C17.2854 27.6844 17.3671 27.3858 18.0721 27.6077C18.8882 27.8644 19.8541 27.6461 20.6325 27.0293C21.7025 26.1813 21.7258 25.9043 20.7897 25.1605C19.9648 24.5052 19.506 23.7063 19.7498 23.35ZM12.5141 24.6732C9.15197 24.273 3.69857 23.4954 3.5879 23.4003C3.54478 23.3633 3.62948 23.3335 3.77613 23.3343C4.12402 23.3362 10.6011 24.0671 14.2083 24.5117C15.7614 24.703 17.138 24.8602 17.2674 24.8607C17.3969 24.8615 17.5027 24.9439 17.5027 25.0443C17.5027 25.2453 17.0264 25.2098 12.5141 24.6732ZM27.2446 24.797C28.4757 24.6443 36.6458 23.7054 37.4571 23.6235C37.8195 23.5869 38.4972 23.5518 38.9629 23.5452C40.3718 23.5255 37.5965 23.9376 31.824 24.605C26.9381 25.1699 26.3962 25.241 26.3496 25.135C26.3405 25.1146 26.3504 25.0869 26.3504 25.055C26.3504 24.9743 26.7527 24.8582 27.2446 24.797ZM8.9878 26.9829C9.92039 26.762 14.6243 26.1262 16.279 25.9972C16.6932 25.9651 17.138 25.9259 17.2674 25.91C17.3969 25.8944 17.5027 25.9491 17.5027 26.0319C17.5027 26.1145 17.0157 26.2337 16.4202 26.2967C12.8371 26.6757 8.92248 27.2502 7.71506 27.5742C7.35325 27.6712 6.97204 27.7476 6.86793 27.7438C6.54454 27.7325 7.9447 27.23 8.9878 26.9829ZM27.5269 26.3056C26.8798 26.2409 26.3504 26.1116 26.3504 26.0181C26.3504 25.818 27.4414 25.9113 31.7189 26.4774C34.4389 26.8372 36.684 27.3708 37.1653 27.7715C37.4502 28.009 37.0708 27.9513 35.8977 27.5793C34.9291 27.2718 30.591 26.612 27.5269 26.3056ZM37.126 29.71C36.905 30.0665 36.6484 29.7778 36.8225 29.3685C36.9 29.1864 37.0069 29.1453 37.1249 29.2518C37.2426 29.358 37.243 29.5214 37.126 29.71ZM21.1735 40.4237L21.9265 40.3248C22.7457 40.2174 23.3096 40.3002 22.9863 40.4804C22.8788 40.5404 22.4269 40.5521 21.9822 40.5065L21.1735 40.4237ZM20.3181 52.624C20.031 51.0875 19.3552 48.8763 18.6882 47.2906C18.6293 47.1503 19.0796 47.5101 19.689 48.0902C21.4227 49.7406 22.8018 50.0841 23.9716 49.157L24.618 48.6449L24.1645 50.2189C23.0189 54.1956 22.6788 59.544 22.8324 71.1631C22.9401 79.3013 23.0983 82.149 23.6301 85.5209C24.1067 88.5403 24.6575 89.7793 26.3113 91.5504C27.4295 92.7479 27.8072 93.1206 27.7164 93.3158C27.6654 93.4252 27.4669 93.479 27.1686 93.5914C25.8486 94.0893 24.7734 94.2193 22.0206 94.214C19.9057 94.2097 18.9787 94.1328 17.9044 93.8719C17.1416 93.6867 16.4297 93.4558 16.322 93.3586C16.1863 93.2361 16.3523 92.9408 16.8615 92.398C19.279 89.8215 19.5753 89.2691 20.131 86.302C20.6097 83.7471 20.8605 80.5257 21.0914 73.9668C21.3795 65.7941 21.0425 56.5 20.3181 52.624ZM19.2458 90.7399C19.6848 89.9714 20.2022 88.9765 20.3953 88.5292L20.7466 87.7155L22.0628 87.7652L23.3791 87.8147L23.8289 88.8962C24.0762 89.491 24.5752 90.4186 24.9378 90.9573C25.3006 91.4961 25.5974 92.0192 25.5974 92.1195C25.5974 92.4222 24.3191 92.5722 21.7383 92.5722C20.0952 92.5722 19.1525 92.5007 18.8693 92.3548L18.4477 92.1372L19.2458 90.7399ZM5.85383 94.6202C7.20545 93.5936 9.4157 92.9162 13.6436 92.2332C14.3683 92.1162 15.2154 92.0133 15.526 92.0051L16.0908 91.9897L15.5989 92.3659C14.8585 92.932 14.4342 93.621 14.5571 94.0578C14.8096 94.9557 16.5283 95.3566 20.7053 95.4921C26.9871 95.6959 30.0916 94.9258 29.3658 93.3442C29.2335 93.0559 28.8756 92.6306 28.5706 92.3988C27.8767 91.8721 27.9523 91.8721 31.1431 92.4041C35.9519 93.2059 38.7747 94.4012 38.7747 95.6365C38.7747 96.9545 34.7388 98.3392 28.7977 99.0598C25.5588 99.4525 18.0972 99.4527 14.9397 99.06C7.60964 98.1485 3.71418 96.245 5.85383 94.6202Z" fill="#2D2926"/>
</svg>
