<svg width="200" height="47" viewBox="0 0 200 47" fill="none" xmlns="http://www.w3.org/2000/svg">
<path d="M91.4501 40.1491H99.1971L81.136 5.4021L63.1207 40.1491H70.4552L72.6555 35.5651H89.2039L91.4501 40.1491ZM80.8609 18.5124L86.0867 29.1474H75.7268L80.8609 18.5124Z" fill="white"/>
<path d="M113.866 40.745C122.988 40.745 128.535 34.8775 128.535 24.9301V5.99805H121.43V25.526C121.43 30.6602 119.138 33.9148 113.866 33.9148C108.824 33.9148 106.211 30.8894 106.211 25.526V5.99805H99.1053V24.3342C99.1053 33.8231 103.873 40.745 113.866 40.745Z" fill="white"/>
<path d="M145.404 34.2357L150.997 40.1491H160.44L153.06 32.2646C157.827 30.0642 160.761 25.5719 160.761 19.4293C160.761 12.0031 154.618 5.99805 146.596 5.99805H134.723V40.1491H141.829V34.2357H145.404ZM141.829 27.8181V12.4157H146.138C151.088 12.4157 153.61 15.8079 153.61 19.9794C153.61 24.7467 150.768 27.8181 145.725 27.8181H141.829Z" fill="white"/>
<path d="M172.771 5.99805H165.666V40.1491H172.771V5.99805Z" fill="white"/>
<path d="M187.486 25.0218C190.786 25.3885 192.62 27.0846 192.62 29.835C192.62 32.0353 190.786 33.9148 188.448 33.9148C186.431 33.9148 184.827 33.4106 183.268 31.4394L177.401 35.7484C180.655 39.324 184.552 40.745 188.448 40.745C194.453 40.745 200 35.9776 200 29.3308C200 22.7297 195.187 18.7875 189.365 18.4208C185.744 18.1916 184.598 16.7705 184.598 15.2119C184.598 13.3325 185.881 12.1865 187.761 12.1865C188.953 12.1865 190.465 12.9199 191.382 13.8826L196.975 9.80277C194.362 6.68563 191.153 5.4021 187.761 5.4021C183.039 5.4021 177.722 9.48189 177.722 15.2578C177.722 20.6211 181.572 24.3342 187.486 25.0218Z" fill="white"/>
<path fill-rule="evenodd" clip-rule="evenodd" d="M35.0311 16.4769C40.7834 21.693 41.2221 30.5652 36.0548 36.1713C35.9573 36.2688 35.9573 36.3175 35.8598 36.415C33.7636 38.8037 30.1075 39.1937 27.5726 37.2438C27.5726 37.195 27.5238 37.195 27.5238 37.195C27.5238 37.195 28.4988 39.7299 30.8875 42.3136C30.6437 42.5573 30.1562 42.5573 29.62 42.4598C27.4751 42.1186 25.4764 41.1924 23.8677 39.7787C22.6977 38.8037 21.674 37.8775 21.6253 37.8287C21.6253 37.8287 22.8927 42.1186 26.7438 45.9697C26.4026 46.2135 25.8664 46.1647 25.2814 46.0672C22.3077 45.4822 19.7728 43.4836 18.4079 40.7537C16.5135 37.0078 16.4443 33.1094 16.3868 29.8657C16.3795 29.4367 16.3717 29.0194 16.3604 28.6153C16.3117 26.9091 14.703 25.5929 12.9968 25.8854L7.34199 26.9091C6.80576 27.0066 6.31827 26.9579 5.78204 26.7629C5.34331 26.6166 5.00207 26.3729 4.66083 26.0804L4.46583 25.8854C4.17334 25.6416 4.27084 25.1542 4.61208 25.0079L6.85451 23.9842L3.53962 24.2279C2.7109 24.3254 1.88218 23.9842 1.34594 23.3017L0.273478 21.9855C-0.214007 21.4493 -0.0190123 20.5718 0.614716 20.1818L9.63316 14.9657C9.8223 14.4324 9.79306 14.0571 9.76576 13.7085C9.71604 13.0699 9.67314 12.5225 10.9981 11.2609C12.4606 9.84717 16.0679 7.50725 17.8716 6.62977C17.8716 4.58234 19.3341 0 19.3341 0C21.7228 1.4137 25.3789 4.14361 26.5489 8.7747L35.0311 16.4769ZM17.6766 2.48616C17.3354 3.65613 17.0917 5.02108 16.9942 6.0448C16.2629 6.43478 15.3367 7.01976 14.4105 7.60474C14.8492 4.97233 15.9704 1.36495 15.9704 1.36495C16.5067 1.65744 17.0917 2.09618 17.6766 2.48616ZM15.8242 13.8445L12.1193 14.0883L12.8993 16.3307L15.8242 13.8445ZM7.45684 7.61372C9.37649 5.69405 11.5677 4.18742 14.0305 3.09383L13.9947 3.22442L13.873 3.6794L13.7543 4.136L13.6387 4.59452L13.5265 5.05533L13.4876 5.22205C11.7062 6.16065 10.0918 7.35369 8.64429 8.80117C6.78462 10.6609 5.34492 12.7961 4.32522 15.207C4.10598 15.7253 3.90951 16.2488 3.73582 16.7774L1.6505 17.9835C1.92817 16.8179 2.30419 15.6743 2.77857 14.5528C3.88332 11.9408 5.44275 9.6278 7.45684 7.61372ZM31.3918 2.93544C34.0038 4.04021 36.3168 5.59964 38.331 7.61372C40.3451 9.62781 41.9044 11.9408 43.0091 14.5528C44.1531 17.2574 44.7252 20.0901 44.7252 23.0508C44.7252 26.0114 44.1531 28.844 43.0091 31.5487C41.9043 34.1607 40.3449 36.4738 38.331 38.4879C36.535 40.2838 34.5013 41.7182 32.23 42.7911L34.2733 39.6892C35.2936 38.9898 36.2503 38.1935 37.1435 37.3004C39.0031 35.4406 40.4428 33.3054 41.4625 30.8946C42.518 28.399 43.0458 25.7844 43.0458 23.0508C43.0458 20.3171 42.518 17.7025 41.4625 15.207C40.4428 12.7961 39.0031 10.6609 37.1435 8.80117C35.2837 6.94149 33.1485 5.5018 30.7377 4.4821C28.9217 3.71401 27.0426 3.22538 25.1006 3.01622L25.0824 2.9942L24.7822 2.64368L24.7533 2.61099L24.4422 2.2701L24.4134 2.23938L24.0921 1.90813L24.0632 1.87929L23.7324 1.55765L23.7039 1.53064L23.3704 1.22445C26.1588 1.28266 28.8326 1.85299 31.3918 2.93544ZM14.3959 43.166C11.7839 42.0612 9.47091 40.5018 7.45684 38.4879C5.44275 36.4738 3.88332 34.1607 2.77856 31.5487C1.88843 29.4442 1.34461 27.2622 1.14709 25.0027L3.04069 26.5458C3.30003 28.0335 3.72821 29.4831 4.32522 30.8946C5.34493 33.3054 6.78462 35.4406 8.64429 37.3004C10.504 39.16 12.6393 40.5997 15.0501 41.6194C15.9724 42.0095 16.9109 42.3275 17.8658 42.5734L17.949 42.7014L17.9845 42.7532L18.2536 43.1281L18.2914 43.1784L18.5772 43.5407L18.6174 43.5894L18.9194 43.9381L18.9619 43.9851L19.2796 44.3197L19.3243 44.3646L19.6103 44.6397C17.8223 44.3714 16.0842 43.8801 14.3959 43.166Z" fill="white"/>
</svg>
