<svg width="300" height="301" viewBox="0 0 300 301" fill="none" xmlns="http://www.w3.org/2000/svg">
<path fill-rule="evenodd" clip-rule="evenodd" d="M234.976 107.616C273.56 141.525 276.503 199.203 241.842 235.648C241.188 236.282 241.188 236.598 240.534 237.232C226.474 252.761 201.95 255.296 184.947 242.62C184.947 242.303 184.62 242.303 184.62 242.303C184.62 242.303 191.159 258.782 207.182 275.578C205.547 277.163 202.277 277.163 198.68 276.529C184.293 274.311 170.886 268.29 160.096 259.099C152.248 252.761 145.381 246.74 145.054 246.423C145.054 246.423 153.556 274.311 179.388 299.347C177.099 300.931 173.502 300.615 169.578 299.981C149.632 296.178 132.629 283.184 123.473 265.437C110.767 241.086 110.302 215.743 109.916 194.655C109.867 191.867 109.815 189.154 109.74 186.527C109.413 175.435 98.6223 166.878 87.1778 168.78L49.2473 175.435C45.6505 176.069 42.3807 175.752 38.7838 174.484C35.8409 173.533 33.552 171.949 31.2631 170.047L29.9552 168.78C27.9932 167.195 28.6472 164.026 30.9361 163.075L45.9775 156.42L23.7425 158.005C18.1837 158.638 12.625 156.42 9.02809 151.983L1.83439 143.427C-1.43548 139.941 -0.127528 134.236 4.12329 131.701L64.6157 97.7916C65.8844 94.3246 65.6882 91.8844 65.5051 89.6185C65.1716 85.4669 64.8839 81.908 73.7713 73.7064C83.5809 64.516 107.778 49.3042 119.876 43.5998C119.876 30.2896 129.686 0.5 129.686 0.5C145.708 9.69041 170.232 27.4374 178.08 57.5439L234.976 107.616ZM118.568 16.6624C116.279 24.2683 114.645 33.1418 113.991 39.7969C109.086 42.3322 102.873 46.1351 96.6603 49.938C99.6032 32.8249 107.124 9.37347 107.124 9.37347C110.721 11.2749 114.645 14.1271 118.568 16.6624ZM106.143 90.5026L81.292 92.0872L86.5238 106.665L106.143 90.5026ZM50.0177 49.9964C62.8941 37.5167 77.5919 27.7222 94.1113 20.6128L93.8711 21.4618L93.0549 24.4196L92.2586 27.3879L91.4831 30.3688L90.731 33.3644L90.4699 34.4483C78.521 40.5501 67.6919 48.306 57.9827 57.716C45.5087 69.8057 35.8517 83.6869 29.012 99.3597C27.5414 102.729 26.2236 106.132 25.0585 109.569L11.071 117.41C12.9334 109.832 15.4557 102.398 18.6376 95.1069C26.0479 78.1267 36.5079 63.0899 50.0177 49.9964ZM210.565 19.5832C228.085 26.7652 243.6 36.9029 257.11 49.9964C270.62 63.0899 281.08 78.1267 288.489 95.1068C296.163 112.69 300 131.105 300 150.352C300 169.599 296.163 188.014 288.489 205.597C281.079 222.577 270.619 237.614 257.11 250.708C245.063 262.383 231.422 271.708 216.187 278.683L229.893 258.517C236.736 253.971 243.154 248.794 249.145 242.988C261.619 230.898 271.275 217.017 278.115 201.344C285.195 185.12 288.735 168.123 288.735 150.352C288.735 132.581 285.195 115.583 278.115 99.3597C271.275 83.6869 261.619 69.8057 249.145 57.716C236.67 45.6263 222.348 36.2669 206.177 29.6379C193.996 24.6446 181.392 21.468 168.366 20.1083L168.244 19.9652L166.23 17.6865L166.036 17.4739L163.95 15.2578L163.756 15.0581L161.601 12.9046L161.407 12.7172L159.188 10.6262L158.997 10.4506L156.76 8.46007C175.464 8.83851 193.398 12.5462 210.565 19.5832ZM96.5623 281.12C79.0422 273.938 63.5274 263.8 50.0177 250.708C36.5079 237.614 26.0479 222.577 18.6376 205.597C12.6669 191.915 9.01913 177.73 7.69425 163.041L20.3959 173.073C22.1354 182.744 25.0075 192.168 29.012 201.344C35.8518 217.017 45.5088 230.898 57.9827 242.988C70.4569 255.077 84.7794 264.437 100.95 271.065C107.137 273.602 113.432 275.669 119.837 277.268L120.395 278.1L120.633 278.437L122.438 280.874L122.692 281.2L124.609 283.556L124.879 283.872L126.905 286.14L127.19 286.445L129.32 288.62L129.62 288.912L131.539 290.701C119.545 288.956 107.887 285.762 96.5623 281.12Z" fill="white"/>
</svg>
